<?xml version="1.0" standalone="no"?>
<!DOCTYPE svg PUBLIC "-//W3C//DTD SVG 20010904//EN"
 "http://www.w3.org/TR/2001/REC-SVG-20010904/DTD/svg10.dtd">
<svg version="1.0" xmlns="http://www.w3.org/2000/svg"
 width="300.000000pt" height="169.000000pt" viewBox="0 0 300.000000 169.000000"
 preserveAspectRatio="xMidYMid meet">
<metadata>
Created by potrace 1.10, written by Peter Selinger 2001-2011
</metadata>
<g transform="translate(0.000000,169.000000) scale(0.100000,-0.100000)"
fill="#ededed" stroke="none">
<path d="M998 980 c-28 -21 -46 -77 -55 -172 -7 -71 11 -98 63 -98 44 0 75 49
80 128 2 31 6 71 9 87 12 59 -49 93 -97 55z m76 -26 c11 -28 6 -44 -13 -44
-15 0 -18 5 -14 21 4 16 2 20 -8 17 -15 -5 -31 -58 -43 -142 -6 -38 -5 -47 6
-44 19 7 36 60 21 65 -20 7 -2 33 22 33 22 0 22 -2 13 -42 -12 -55 -33 -88
-57 -88 -38 0 -43 22 -27 114 8 47 20 94 26 106 13 25 65 28 74 4z"/>
<path d="M1457 988 c-11 -9 -24 -47 -36 -111 -11 -54 -21 -100 -23 -102 -2 -2
-27 38 -56 89 -57 101 -81 130 -104 121 -8 -3 -45 -59 -82 -123 -72 -125 -74
-142 -20 -152 16 -3 79 -4 139 -3 61 2 186 3 279 3 105 0 173 4 181 10 9 8 15
8 20 0 8 -13 72 -13 80 0 4 7 11 7 18 2 7 -5 57 -8 111 -8 83 1 101 4 110 18
8 13 8 23 -2 38 -17 28 -15 44 8 65 21 19 27 45 10 45 -16 0 -12 19 12 50 21
29 21 30 2 51 -14 15 -26 19 -49 15 -57 -11 -110 -12 -122 -3 -9 6 -18 5 -28
-3 -13 -11 -20 -11 -40 0 -15 8 -34 10 -52 5 -15 -5 -32 -7 -38 -5 -23 7 -151
7 -165 0 -8 -5 -22 -4 -32 1 -13 7 -23 4 -37 -10 -19 -19 -20 -19 -37 0 -20
22 -25 23 -47 7z m-197 -28 c0 -5 23 -47 50 -94 28 -47 50 -87 50 -90 0 -3
-30 -6 -66 -6 -48 0 -65 3 -62 13 3 6 21 13 41 15 20 2 37 5 37 7 0 8 -71 125
-76 125 -3 0 8 -25 25 -55 35 -63 36 -65 17 -65 -8 0 -17 9 -21 19 -3 11 -12
24 -20 31 -11 9 -21 -3 -52 -59 -25 -47 -44 -71 -56 -71 -15 0 -13 7 13 53 17
28 47 82 68 119 34 63 52 82 52 58z m230 -67 c0 -43 4 -73 9 -67 4 5 19 39 31
77 13 37 30 67 37 67 16 0 17 6 -7 -124 -11 -60 -20 -111 -20 -113 0 -2 -7 -3
-16 -3 -10 0 -14 6 -10 18 10 34 18 92 13 92 -3 0 -13 -25 -22 -55 -21 -75
-37 -71 -30 8 3 42 2 56 -4 42 -5 -11 -10 -37 -10 -58 -1 -24 -6 -40 -16 -44
-9 -3 -17 -4 -19 -2 -2 2 6 57 17 122 14 80 25 117 34 117 10 0 13 -20 13 -77z
m187 65 c-2 -7 -12 -13 -23 -13 -14 0 -20 -10 -25 -38 -5 -31 -3 -37 12 -37
13 0 16 -5 12 -16 -3 -8 -11 -13 -18 -10 -8 3 -16 -6 -20 -22 -3 -15 -8 -36
-12 -46 -4 -15 -1 -18 16 -13 17 4 21 1 19 -11 -3 -17 -68 -31 -68 -15 0 4 9
57 20 117 11 60 20 111 20 113 0 2 16 3 36 3 24 0 34 -4 31 -12z m87 -10 c-4
-13 -22 -58 -40 -101 -19 -43 -34 -81 -34 -84 0 -3 9 -3 20 0 15 4 20 0 20
-14 0 -16 -7 -19 -40 -19 -22 0 -40 4 -40 9 0 6 18 52 40 102 22 51 40 96 40
100 0 4 -9 5 -20 2 -14 -4 -20 0 -20 11 0 12 10 16 41 16 37 0 40 -2 33 -22z
m103 5 c7 -19 -14 -155 -30 -190 -11 -24 -48 -40 -66 -28 -23 13 -4 166 25
213 17 26 62 30 71 5z m73 -58 l5 -70 8 45 c17 94 19 100 34 100 11 0 14 -7
10 -22 -3 -13 -13 -67 -22 -120 -21 -119 -39 -130 -51 -30 l-8 67 -10 -65 c-9
-51 -15 -66 -30 -68 -15 -3 -17 0 -12 14 4 10 14 64 24 121 13 81 20 103 32
101 11 -2 16 -22 20 -73z m157 63 c-2 -7 -11 -13 -20 -13 -20 0 -23 -4 -30
-42 -6 -28 -4 -33 13 -33 13 0 18 -5 13 -16 -3 -8 -12 -13 -20 -10 -15 6 -18
0 -27 -53 -5 -30 -4 -33 14 -28 15 4 20 0 20 -14 0 -15 -7 -19 -35 -19 -40 0
-40 -4 -20 109 25 140 21 131 61 131 24 0 34 -4 31 -12z m-407 -45 c-1 -18
-18 -35 -24 -24 -4 6 -4 16 -1 21 7 12 25 13 25 3z m-463 -112 c-9 -16 -17
-32 -17 -36 0 -3 37 -5 81 -4 67 2 83 -1 91 -14 8 -15 -2 -17 -107 -17 -64 0
-115 3 -113 8 22 50 64 110 72 102 7 -7 4 -20 -7 -39z"/>
<path d="M1810 913 c-17 -62 -24 -153 -12 -153 13 0 29 54 38 133 8 66 -9 79
-26 20z"/>
</g>
</svg>
