<?xml version="1.0" standalone="no"?>
<!DOCTYPE svg PUBLIC "-//W3C//DTD SVG 20010904//EN"
 "http://www.w3.org/TR/2001/REC-SVG-20010904/DTD/svg10.dtd">
<svg version="1.0" xmlns="http://www.w3.org/2000/svg"
 width="186.000000pt" height="60.000000pt" viewBox="0 0 186.000000 60.000000"
 preserveAspectRatio="xMidYMid meet">

<g transform="translate(0.000000,60.000000) scale(0.100000,-0.100000)"
fill="#000000" stroke="none">
<path d="M0 300 l0 -300 930 0 930 0 0 300 0 300 -930 0 -930 0 0 -300z m264
124 c29 -28 14 -93 -18 -81 -9 4 -16 18 -16 32 0 29 -24 34 -35 8 -7 -20 -45
-219 -45 -240 0 -20 38 -16 44 5 17 60 17 82 2 82 -18 0 -19 2 -10 24 4 10 18
16 41 16 35 0 35 0 29 -37 -21 -115 -44 -153 -94 -153 -58 0 -64 37 -33 200
21 104 24 113 49 143 19 21 65 22 86 1z m380 -166 c53 -92 96 -169 96 -172 0
-3 -77 -6 -171 -6 -159 0 -171 1 -165 18 5 15 5 15 -8 -1 -9 -11 -24 -17 -39
-15 -24 3 -23 7 61 152 l85 148 20 -23 19 -24 -16 27 c-13 22 -14 32 -4 53 6
14 15 22 19 18 4 -5 50 -83 103 -175z m260 130 c3 -29 6 -80 6 -113 l1 -60 43
110 c34 86 47 110 62 110 22 0 23 7 -12 -195 -14 -80 -29 -149 -34 -154 -14
-14 -42 2 -36 21 2 10 7 38 10 63 6 43 5 43 -17 -20 -31 -85 -51 -86 -56 -5
l-4 60 -11 -60 c-9 -51 -15 -61 -33 -63 -13 -2 -23 0 -23 5 0 4 13 82 30 173
16 91 30 168 30 173 0 4 8 7 19 7 15 0 19 -10 25 -52z m276 32 c0 -15 -7 -20
-30 -20 -26 0 -30 -4 -35 -37 -4 -21 -9 -46 -12 -55 -3 -14 2 -18 21 -18 28 0
29 -1 20 -24 -3 -9 -16 -16 -29 -16 -20 0 -23 -7 -32 -60 l-10 -60 29 0 c29 0
33 -6 22 -34 -4 -12 -20 -16 -55 -16 -27 0 -49 3 -49 8 0 4 14 83 30 177 17
93 30 171 30 172 0 2 23 3 50 3 43 0 50 -3 50 -20z m140 8 c0 -7 -27 -76 -60
-153 -33 -77 -60 -141 -60 -142 0 -2 14 -3 31 -3 26 0 30 -3 27 -22 -3 -20
-10 -23 -60 -26 -39 -2 -58 1 -58 8 0 7 29 79 64 161 l64 149 -34 0 c-32 0
-45 16 -27 33 12 13 113 8 113 -5z m140 -3 c26 -31 -13 -270 -51 -320 -36 -45
-109 -26 -109 29 0 32 28 193 42 239 6 21 21 45 32 53 27 18 70 18 86 -1z
m115 -85 l11 -95 18 98 c15 81 21 97 36 97 11 0 21 -3 23 -7 2 -5 -10 -84 -27
-178 -28 -153 -33 -170 -51 -170 -17 0 -21 10 -31 80 -11 86 -17 84 -34 -10
-11 -64 -21 -81 -43 -72 -11 4 -9 32 15 169 34 193 33 190 55 186 15 -3 20
-21 28 -98z m235 80 c0 -15 -7 -20 -29 -20 -31 0 -34 -5 -46 -72 -6 -36 -4
-38 20 -38 27 0 28 -1 19 -24 -3 -9 -17 -16 -29 -16 -20 0 -24 -7 -30 -42 -3
-24 -9 -51 -11 -60 -4 -15 1 -18 26 -18 25 0 31 -3 26 -16 -3 -9 -6 -20 -6
-25 0 -5 -22 -9 -50 -9 -33 0 -50 4 -50 13 0 12 44 266 56 320 5 25 9 27 55
27 42 0 49 -3 49 -20z"/>
<path d="M560 290 c6 -11 13 -20 16 -20 2 0 0 9 -6 20 -6 11 -13 20 -16 20 -2
0 0 -9 6 -20z"/>
<path d="M497 275 c-4 -9 -3 -13 3 -10 5 3 15 -5 21 -18 9 -21 7 -33 -16 -73
-15 -27 -20 -40 -11 -30 9 11 16 23 16 28 0 4 27 8 60 8 l60 0 -20 40 c-11 22
-23 40 -25 40 -3 0 1 -13 10 -30 20 -38 19 -40 -10 -40 -18 0 -30 10 -44 38
-33 62 -37 66 -44 47z"/>
<path d="M465 220 c-9 -16 -13 -30 -11 -30 3 0 12 14 21 30 9 17 13 30 11 30
-3 0 -12 -13 -21 -30z"/>
<path d="M430 160 c-6 -11 -8 -20 -6 -20 3 0 10 9 16 20 6 11 8 20 6 20 -3 0
-10 -9 -16 -20z"/>
<path d="M1382 358 c-17 -68 -37 -217 -29 -224 19 -19 36 11 51 93 31 173 31
173 8 173 -15 0 -22 -10 -30 -42z"/>
</g>
</svg>
